<?xml version="1.0" standalone="no"?>
<!DOCTYPE svg PUBLIC "-//W3C//DTD SVG 20010904//EN"
 "http://www.w3.org/TR/2001/REC-SVG-20010904/DTD/svg10.dtd">
<svg version="1.0" xmlns="http://www.w3.org/2000/svg"
 width="1500.000000pt" height="1500.000000pt" viewBox="0 0 1500.000000 1500.000000"
 preserveAspectRatio="xMidYMid meet">

<g transform="translate(0.000000,1500.000000) scale(0.100000,-0.100000)"
fill="#056839" stroke="none">
<path d="M8115 13503 c-247 -14 -549 -72 -780 -148 -778 -256 -1405 -777
-1807 -1500 -181 -324 -301 -694 -361 -1105 -19 -138 -21 -195 -24 -1139 l-4
-993 -57 55 c-67 65 -89 83 -412 326 -371 279 -399 301 -461 359 -36 33 -87
99 -135 175 -42 67 -92 145 -109 172 -18 28 -157 250 -310 495 -540 864 -521
835 -590 906 -62 65 -170 134 -255 164 -85 31 -270 34 -368 7 -205 -56 -352
-148 -447 -282 -97 -136 -125 -238 -155 -575 -29 -319 -88 -943 -100 -1060 -6
-52 -24 -237 -40 -410 -91 -934 -132 -1335 -210 -2010 -40 -346 -137 -1140
-200 -1633 -28 -216 -64 -504 -80 -642 -37 -297 -72 -533 -100 -670 -26 -124
-173 -717 -280 -1130 -163 -628 -172 -673 -159 -811 21 -215 153 -392 359
-479 79 -34 225 -46 330 -29 162 28 332 156 403 305 47 99 58 135 206 719 44
173 105 412 136 530 173 656 250 1058 281 1470 12 162 84 690 95 690 12 0 165
-279 330 -605 l112 -220 24 -275 c13 -151 57 -678 98 -1170 42 -492 80 -920
85 -950 13 -74 78 -203 135 -267 57 -65 160 -134 245 -164 55 -20 84 -24 195
-24 118 0 138 3 212 29 134 47 249 148 311 271 52 105 70 254 53 455 -6 69
-22 269 -36 445 -88 1112 -140 1695 -165 1840 -11 61 -31 145 -45 188 -28 84
-287 615 -613 1252 -507 994 -458 877 -449 1075 4 74 16 227 27 340 46 464 87
883 107 1102 13 145 20 185 30 180 7 -4 33 -32 59 -62 152 -180 212 -231 824
-690 331 -249 373 -277 469 -307 214 -68 433 -19 588 132 l62 60 4 -810 c3
-755 5 -820 25 -955 81 -567 270 -1033 601 -1480 448 -604 1109 -1036 1836
-1199 310 -70 455 -80 1128 -81 l527 0 -1 -287 0 -288 -72 -35 c-79 -39 -201
-150 -255 -233 -65 -101 -102 -237 -102 -370 1 -103 18 -186 58 -271 115 -245
324 -388 587 -403 329 -17 616 194 699 514 23 89 21 250 -4 341 -54 194 -196
364 -367 442 l-43 19 0 285 0 286 829 0 c803 0 831 1 894 20 156 48 280 181
316 340 7 30 11 650 11 1857 l0 1812 748 4 747 3 96 26 c246 67 423 169 595
343 141 143 235 299 298 495 56 174 61 222 61 675 0 359 -2 422 -19 510 -84
451 -394 816 -818 964 -185 64 -204 66 -738 66 -432 0 -494 -2 -570 -18 -552
-119 -942 -551 -1000 -1109 -6 -63 -10 -985 -10 -2617 l0 -2519 -1287 4 c-788
3 -1335 8 -1408 15 -237 21 -545 95 -773 186 -886 355 -1539 1124 -1741 2050
-66 303 -64 242 -68 1833 -4 1463 -1 1682 32 1901 173 1148 1025 2085 2146
2359 284 69 526 90 909 80 348 -10 448 -37 560 -149 60 -60 92 -117 115 -208
16 -62 16 -64 -35 -83 -90 -35 -198 -107 -275 -185 -192 -195 -261 -432 -206
-703 112 -541 751 -803 1244 -511 85 51 211 173 265 260 82 129 130 311 119
452 -14 182 -119 614 -210 863 -265 724 -695 1046 -1487 1114 -101 9 -852 11
-985 3z m5090 -3646 c209 -74 357 -200 455 -387 71 -138 82 -193 87 -466 7
-329 -8 -429 -87 -585 -85 -168 -234 -303 -407 -370 -146 -57 -179 -59 -840
-59 l-604 0 3 628 c4 615 4 628 26 700 88 289 304 493 587 558 45 10 139 13
380 11 l320 -2 80 -28z m-3577 -7336 c141 -44 248 -177 260 -326 16 -200 -116
-368 -316 -405 -146 -26 -310 48 -382 174 -86 151 -72 325 37 446 104 116 253
158 401 111z"/>
<path d="M2500 13475 c-416 -66 -753 -350 -865 -731 -33 -110 -44 -298 -26
-424 52 -352 291 -657 623 -794 133 -55 234 -77 389 -83 169 -7 289 12 434 68
334 129 568 395 652 740 27 110 24 325 -5 443 -69 278 -265 529 -523 670 -202
111 -436 149 -679 111z"/>
<path d="M8331 10479 c-324 -42 -639 -228 -835 -494 -92 -124 -137 -211 -184
-355 -66 -199 -62 -49 -62 -2492 0 -2159 1 -2220 19 -2256 11 -22 35 -46 59
-60 37 -20 52 -22 218 -22 201 0 239 10 282 73 l22 33 0 1247 0 1247 410 0
409 0 34 -37 c58 -65 281 -316 317 -359 32 -37 149 -169 239 -269 20 -22 117
-132 216 -245 99 -113 182 -207 185 -210 3 -3 51 -57 107 -120 159 -181 668
-757 744 -842 82 -91 123 -109 193 -86 50 17 270 203 310 263 31 47 34 106 7
150 -18 28 -331 389 -556 640 -28 31 -64 71 -195 220 -62 72 -150 170 -194
220 -92 102 -98 108 -271 305 -70 80 -156 177 -190 215 -34 39 -77 88 -96 110
-19 22 -40 46 -46 53 -21 22 -16 27 59 51 211 68 389 183 533 344 92 102 85
93 129 161 83 126 143 270 178 429 19 82 21 136 25 486 3 258 1 428 -6 490
-31 258 -116 463 -272 656 -203 251 -488 410 -812 454 -92 13 -879 13 -976 0z
m851 -604 c43 -9 116 -36 177 -67 87 -43 118 -65 191 -137 125 -123 192 -245
225 -410 14 -66 16 -128 13 -353 -5 -297 -13 -350 -75 -471 -88 -175 -250
-327 -412 -388 -149 -56 -126 -54 -810 -54 l-634 0 2 618 c2 564 4 625 21 690
73 286 303 511 585 572 91 20 620 20 717 0z"/>
</g>
</svg>
